<?xml version="1.0" standalone="no"?>
<!DOCTYPE svg PUBLIC "-//W3C//DTD SVG 20010904//EN"
 "http://www.w3.org/TR/2001/REC-SVG-20010904/DTD/svg10.dtd">
<svg version="1.0" xmlns="http://www.w3.org/2000/svg"
 width="500.000000pt" height="500.000000pt" viewBox="0 0 500.000000 500.000000"
 preserveAspectRatio="xMidYMid meet">
<metadata>
Created by potrace 1.14, written by Peter Selinger 2001-2017
</metadata>
<g transform="translate(0.000000,500.000000) scale(0.100000,-0.100000)"
fill="#000000" stroke="none">
<path d="M0 2500 l0 -2500 2500 0 2500 0 0 2500 0 2500 -2500 0 -2500 0 0
-2500z m1660 229 c55 -12 57 -16 35 -60 -13 -25 -19 -28 -43 -22 -47 12 -76 9
-80 -9 -2 -12 8 -20 39 -28 52 -14 109 -68 109 -104 0 -36 -19 -73 -47 -91
-34 -23 -115 -30 -168 -15 -63 18 -72 32 -46 74 l22 35 41 -19 c30 -13 47 -16
60 -9 29 16 21 28 -36 53 -82 36 -104 82 -71 146 9 17 17 30 18 30 1 0 20 7
42 15 49 17 61 18 125 4z m385 -24 c48 -28 85 -90 85 -143 0 -134 -162 -215
-296 -147 -65 33 -87 66 -92 135 -5 67 12 107 60 144 69 52 167 56 243 11z
m399 15 c7 -7 3 -25 -12 -54 -20 -43 -22 -44 -51 -33 -38 14 -77 -2 -91 -39
-6 -14 -10 -63 -10 -110 l0 -84 -55 0 -55 0 0 165 0 165 55 0 c48 0 55 -2 55
-20 0 -22 15 -27 26 -9 20 33 111 46 138 19z m241 9 c53 -13 101 -59 115 -107
20 -74 24 -72 -110 -72 -97 0 -120 -3 -120 -14 0 -43 65 -66 119 -41 37 16 40
16 75 -2 35 -18 36 -19 20 -42 -41 -59 -157 -78 -234 -38 -138 69 -125 260 22
313 43 16 60 16 113 3z m457 -15 c45 -23 58 -67 58 -199 l0 -115 -60 0 -59 0
-3 112 c-3 110 -3 113 -30 127 -25 14 -29 14 -55 -5 -27 -21 -28 -24 -31 -128
l-3 -106 -54 0 -55 0 0 165 0 165 55 0 c42 0 55 -3 55 -15 0 -12 7 -11 38 6
41 22 92 20 144 -7z m343 15 c50 -14 100 -51 120 -89 19 -37 19 -113 0 -154
-50 -106 -234 -129 -321 -42 -64 64 -69 157 -12 222 57 65 128 86 213 63z"/>
<path d="M1886 2619 c-33 -26 -36 -79 -6 -109 30 -30 83 -27 109 6 28 35 26
69 -4 99 -30 30 -64 32 -99 4z"/>
<path d="M2593 2648 c-28 -36 -26 -38 43 -38 l66 0 -14 23 c-18 26 -79 36 -95
15z"/>
<path d="M3381 2623 c-54 -45 -24 -133 45 -133 44 0 74 29 74 73 0 64 -71 99
-119 60z"/>
</g>
</svg>
